<?xml version="1.0" encoding="UTF-8" standalone="no"?><svg xmlns="http://www.w3.org/2000/svg" xmlns:xlink="http://www.w3.org/1999/xlink" contentScriptType="application/ecmascript" contentStyleType="text/css" height="681px" preserveAspectRatio="none" style="width:2359px;height:681px;" version="1.1" viewBox="0 0 2359 681" width="2359px" zoomAndPan="magnify"><defs><filter height="300%" id="f3kmoy3i7mnhm" width="300%" x="-1" y="-1"><feGaussianBlur result="blurOut" stdDeviation="2.0"/><feColorMatrix in="blurOut" result="blurOut2" type="matrix" values="0 0 0 0 0 0 0 0 0 0 0 0 0 0 0 0 0 0 .4 0"/><feOffset dx="4.0" dy="4.0" in="blurOut2" result="blurOut3"/><feBlend in="SourceGraphic" in2="blurOut3" mode="normal"/></filter></defs><g><!--class CreateOfficeDto--><rect fill="#FEFECE" filter="url(#f3kmoy3i7mnhm)" height="117.1797" id="CreateOfficeDto" style="stroke: #A80036; stroke-width: 1.5;" width="443" x="47.5" y="36"/><ellipse cx="221.25" cy="52" fill="#ADD1B2" rx="11" ry="11" style="stroke: #A80036; stroke-width: 1.0;"/><path d="M224.0156,47.875 Q224.1719,47.6563 224.3594,47.5469 Q224.5469,47.4375 224.7656,47.4375 Q225.1406,47.4375 225.375,47.6953 Q225.6094,47.9531 225.6094,48.5625 L225.6094,50.0156 Q225.6094,50.625 225.375,50.8906 Q225.1406,51.1563 224.7656,51.1563 Q224.4219,51.1563 224.2188,50.9531 Q224.0156,50.7656 223.9063,50.25 Q223.8594,49.8906 223.6719,49.7031 Q223.3438,49.3281 222.7344,49.1094 Q222.125,48.8906 221.5,48.8906 Q220.7344,48.8906 220.1016,49.2188 Q219.4688,49.5469 218.9766,50.2969 Q218.4844,51.0469 218.4844,52.0781 L218.4844,53.1719 Q218.4844,54.4063 219.375,55.2266 Q220.2656,56.0469 221.8594,56.0469 Q222.7969,56.0469 223.4531,55.7969 Q223.8438,55.6406 224.2656,55.2031 Q224.5313,54.9375 224.6797,54.8594 Q224.8281,54.7813 225.0313,54.7813 Q225.3594,54.7813 225.6172,55.0391 Q225.875,55.2969 225.875,55.6406 Q225.875,55.9844 225.5313,56.3906 Q225.0313,56.9688 224.2344,57.2969 Q223.1563,57.75 221.8594,57.75 Q220.3438,57.75 219.1406,57.125 Q218.1563,56.625 217.4688,55.5547 Q216.7813,54.4844 216.7813,53.2031 L216.7813,52.0469 Q216.7813,50.7188 217.3984,49.5703 Q218.0156,48.4219 219.1094,47.8047 Q220.2031,47.1875 221.4375,47.1875 Q222.1719,47.1875 222.8203,47.3516 Q223.4688,47.5156 224.0156,47.875 Z "/><text fill="#000000" font-family="sans-serif" font-size="12" lengthAdjust="spacingAndGlyphs" textLength="87" x="241.75" y="56.9102">CreateOfficeDto</text><line style="stroke: #A80036; stroke-width: 1.5;" x1="48.5" x2="489.5" y1="68" y2="68"/><rect fill="none" height="6" style="stroke: #C82930; stroke-width: 1.0;" width="6" x="55.5" y="77.418"/><text fill="#000000" font-family="sans-serif" font-size="11" lengthAdjust="spacingAndGlyphs" textLength="57" x="67.5" y="83.4189">String name</text><rect fill="none" height="6" style="stroke: #C82930; stroke-width: 1.0;" width="6" x="55.5" y="91.2539"/><text fill="#000000" font-family="sans-serif" font-size="11" lengthAdjust="spacingAndGlyphs" textLength="68" x="67.5" y="97.2549">String location</text><rect fill="none" height="6" style="stroke: #C82930; stroke-width: 1.0;" width="6" x="55.5" y="105.0898"/><text fill="#000000" font-family="sans-serif" font-size="11" lengthAdjust="spacingAndGlyphs" textLength="94" x="67.5" y="111.0908">DateTime openHour</text><rect fill="none" height="6" style="stroke: #C82930; stroke-width: 1.0;" width="6" x="55.5" y="118.9258"/><text fill="#000000" font-family="sans-serif" font-size="11" lengthAdjust="spacingAndGlyphs" textLength="96" x="67.5" y="124.9268">DateTime closeHour</text><line style="stroke: #A80036; stroke-width: 1.5;" x1="48.5" x2="489.5" y1="131.3438" y2="131.3438"/><ellipse cx="58.5" cy="143.7617" fill="#84BE84" rx="3" ry="3" style="stroke: #038048; stroke-width: 1.0;"/><text fill="#000000" font-family="sans-serif" font-size="11" lengthAdjust="spacingAndGlyphs" textLength="417" x="67.5" y="146.7627">CreateOfficeDto(string name, string location, DateTime openHour, DateTime closeHour)</text><!--class AddEmployeeDto--><rect fill="#FEFECE" filter="url(#f3kmoy3i7mnhm)" height="117.1797" id="AddEmployeeDto" style="stroke: #A80036; stroke-width: 1.5;" width="379" x="640.5" y="36"/><ellipse cx="778.25" cy="52" fill="#ADD1B2" rx="11" ry="11" style="stroke: #A80036; stroke-width: 1.0;"/><path d="M781.0156,47.875 Q781.1719,47.6563 781.3594,47.5469 Q781.5469,47.4375 781.7656,47.4375 Q782.1406,47.4375 782.375,47.6953 Q782.6094,47.9531 782.6094,48.5625 L782.6094,50.0156 Q782.6094,50.625 782.375,50.8906 Q782.1406,51.1563 781.7656,51.1563 Q781.4219,51.1563 781.2188,50.9531 Q781.0156,50.7656 780.9063,50.25 Q780.8594,49.8906 780.6719,49.7031 Q780.3438,49.3281 779.7344,49.1094 Q779.125,48.8906 778.5,48.8906 Q777.7344,48.8906 777.1016,49.2188 Q776.4688,49.5469 775.9766,50.2969 Q775.4844,51.0469 775.4844,52.0781 L775.4844,53.1719 Q775.4844,54.4063 776.375,55.2266 Q777.2656,56.0469 778.8594,56.0469 Q779.7969,56.0469 780.4531,55.7969 Q780.8438,55.6406 781.2656,55.2031 Q781.5313,54.9375 781.6797,54.8594 Q781.8281,54.7813 782.0313,54.7813 Q782.3594,54.7813 782.6172,55.0391 Q782.875,55.2969 782.875,55.6406 Q782.875,55.9844 782.5313,56.3906 Q782.0313,56.9688 781.2344,57.2969 Q780.1563,57.75 778.8594,57.75 Q777.3438,57.75 776.1406,57.125 Q775.1563,56.625 774.4688,55.5547 Q773.7813,54.4844 773.7813,53.2031 L773.7813,52.0469 Q773.7813,50.7188 774.3984,49.5703 Q775.0156,48.4219 776.1094,47.8047 Q777.2031,47.1875 778.4375,47.1875 Q779.1719,47.1875 779.8203,47.3516 Q780.4688,47.5156 781.0156,47.875 Z "/><text fill="#000000" font-family="sans-serif" font-size="12" lengthAdjust="spacingAndGlyphs" textLength="95" x="798.75" y="56.9102">AddEmployeeDto</text><line style="stroke: #A80036; stroke-width: 1.5;" x1="641.5" x2="1018.5" y1="68" y2="68"/><rect fill="none" height="6" style="stroke: #C82930; stroke-width: 1.0;" width="6" x="648.5" y="77.418"/><text fill="#000000" font-family="sans-serif" font-size="11" lengthAdjust="spacingAndGlyphs" textLength="61" x="660.5" y="83.4189">Guid officeId</text><rect fill="none" height="6" style="stroke: #C82930; stroke-width: 1.0;" width="6" x="648.5" y="91.2539"/><text fill="#000000" font-family="sans-serif" font-size="11" lengthAdjust="spacingAndGlyphs" textLength="57" x="660.5" y="97.2549">String name</text><rect fill="none" height="6" style="stroke: #C82930; stroke-width: 1.0;" width="6" x="648.5" y="105.0898"/><text fill="#000000" font-family="sans-serif" font-size="11" lengthAdjust="spacingAndGlyphs" textLength="75" x="660.5" y="111.0908">String lastName</text><rect fill="none" height="6" style="stroke: #C82930; stroke-width: 1.0;" width="6" x="648.5" y="118.9258"/><text fill="#000000" font-family="sans-serif" font-size="11" lengthAdjust="spacingAndGlyphs" textLength="55" x="660.5" y="124.9268">String email</text><line style="stroke: #A80036; stroke-width: 1.5;" x1="641.5" x2="1018.5" y1="131.3438" y2="131.3438"/><ellipse cx="651.5" cy="143.7617" fill="#84BE84" rx="3" ry="3" style="stroke: #038048; stroke-width: 1.0;"/><text fill="#000000" font-family="sans-serif" font-size="11" lengthAdjust="spacingAndGlyphs" textLength="353" x="660.5" y="146.7627">AddEmployeeDto(Guid officeId, string name, string lastName, string email)</text><!--class AddRoomDto--><rect fill="#FEFECE" filter="url(#f3kmoy3i7mnhm)" height="103.3438" id="AddRoomDto" style="stroke: #A80036; stroke-width: 1.5;" width="290" x="1170" y="43"/><ellipse cx="1273.75" cy="59" fill="#ADD1B2" rx="11" ry="11" style="stroke: #A80036; stroke-width: 1.0;"/><path d="M1276.5156,54.875 Q1276.6719,54.6563 1276.8594,54.5469 Q1277.0469,54.4375 1277.2656,54.4375 Q1277.6406,54.4375 1277.875,54.6953 Q1278.1094,54.9531 1278.1094,55.5625 L1278.1094,57.0156 Q1278.1094,57.625 1277.875,57.8906 Q1277.6406,58.1563 1277.2656,58.1563 Q1276.9219,58.1563 1276.7188,57.9531 Q1276.5156,57.7656 1276.4063,57.25 Q1276.3594,56.8906 1276.1719,56.7031 Q1275.8438,56.3281 1275.2344,56.1094 Q1274.625,55.8906 1274,55.8906 Q1273.2344,55.8906 1272.6016,56.2188 Q1271.9688,56.5469 1271.4766,57.2969 Q1270.9844,58.0469 1270.9844,59.0781 L1270.9844,60.1719 Q1270.9844,61.4063 1271.875,62.2266 Q1272.7656,63.0469 1274.3594,63.0469 Q1275.2969,63.0469 1275.9531,62.7969 Q1276.3438,62.6406 1276.7656,62.2031 Q1277.0313,61.9375 1277.1797,61.8594 Q1277.3281,61.7813 1277.5313,61.7813 Q1277.8594,61.7813 1278.1172,62.0391 Q1278.375,62.2969 1278.375,62.6406 Q1278.375,62.9844 1278.0313,63.3906 Q1277.5313,63.9688 1276.7344,64.2969 Q1275.6563,64.75 1274.3594,64.75 Q1272.8438,64.75 1271.6406,64.125 Q1270.6563,63.625 1269.9688,62.5547 Q1269.2813,61.4844 1269.2813,60.2031 L1269.2813,59.0469 Q1269.2813,57.7188 1269.8984,56.5703 Q1270.5156,55.4219 1271.6094,54.8047 Q1272.7031,54.1875 1273.9375,54.1875 Q1274.6719,54.1875 1275.3203,54.3516 Q1275.9688,54.5156 1276.5156,54.875 Z "/><text fill="#000000" font-family="sans-serif" font-size="12" lengthAdjust="spacingAndGlyphs" textLength="74" x="1294.25" y="63.9102">AddRoomDto</text><line style="stroke: #A80036; stroke-width: 1.5;" x1="1171" x2="1459" y1="75" y2="75"/><rect fill="none" height="6" style="stroke: #C82930; stroke-width: 1.0;" width="6" x="1178" y="84.418"/><text fill="#000000" font-family="sans-serif" font-size="11" lengthAdjust="spacingAndGlyphs" textLength="61" x="1190" y="90.4189">Guid officeId</text><rect fill="none" height="6" style="stroke: #C82930; stroke-width: 1.0;" width="6" x="1178" y="98.2539"/><text fill="#000000" font-family="sans-serif" font-size="11" lengthAdjust="spacingAndGlyphs" textLength="76" x="1190" y="104.2549">Int maxCapacity</text><rect fill="none" height="6" style="stroke: #C82930; stroke-width: 1.0;" width="6" x="1178" y="112.0898"/><text fill="#000000" font-family="sans-serif" font-size="11" lengthAdjust="spacingAndGlyphs" textLength="44" x="1190" y="118.0908">Int chairs</text><line style="stroke: #A80036; stroke-width: 1.5;" x1="1171" x2="1459" y1="124.5078" y2="124.5078"/><ellipse cx="1181" cy="136.9258" fill="#84BE84" rx="3" ry="3" style="stroke: #038048; stroke-width: 1.0;"/><text fill="#000000" font-family="sans-serif" font-size="11" lengthAdjust="spacingAndGlyphs" textLength="264" x="1190" y="139.9268">AddRoomDto(Guid officeId, int maxCapacity, int chairs)</text><!--class AddReservationToRoomDto--><rect fill="#FEFECE" filter="url(#f3kmoy3i7mnhm)" height="117.1797" id="AddReservationToRoomDto" style="stroke: #A80036; stroke-width: 1.5;" width="499" x="19.5" y="288"/><ellipse cx="187.75" cy="304" fill="#ADD1B2" rx="11" ry="11" style="stroke: #A80036; stroke-width: 1.0;"/><path d="M190.5156,299.875 Q190.6719,299.6563 190.8594,299.5469 Q191.0469,299.4375 191.2656,299.4375 Q191.6406,299.4375 191.875,299.6953 Q192.1094,299.9531 192.1094,300.5625 L192.1094,302.0156 Q192.1094,302.625 191.875,302.8906 Q191.6406,303.1563 191.2656,303.1563 Q190.9219,303.1563 190.7188,302.9531 Q190.5156,302.7656 190.4063,302.25 Q190.3594,301.8906 190.1719,301.7031 Q189.8438,301.3281 189.2344,301.1094 Q188.625,300.8906 188,300.8906 Q187.2344,300.8906 186.6016,301.2188 Q185.9688,301.5469 185.4766,302.2969 Q184.9844,303.0469 184.9844,304.0781 L184.9844,305.1719 Q184.9844,306.4063 185.875,307.2266 Q186.7656,308.0469 188.3594,308.0469 Q189.2969,308.0469 189.9531,307.7969 Q190.3438,307.6406 190.7656,307.2031 Q191.0313,306.9375 191.1797,306.8594 Q191.3281,306.7813 191.5313,306.7813 Q191.8594,306.7813 192.1172,307.0391 Q192.375,307.2969 192.375,307.6406 Q192.375,307.9844 192.0313,308.3906 Q191.5313,308.9688 190.7344,309.2969 Q189.6563,309.75 188.3594,309.75 Q186.8438,309.75 185.6406,309.125 Q184.6563,308.625 183.9688,307.5547 Q183.2813,306.4844 183.2813,305.2031 L183.2813,304.0469 Q183.2813,302.7188 183.8984,301.5703 Q184.5156,300.4219 185.6094,299.8047 Q186.7031,299.1875 187.9375,299.1875 Q188.6719,299.1875 189.3203,299.3516 Q189.9688,299.5156 190.5156,299.875 Z "/><text fill="#000000" font-family="sans-serif" font-size="12" lengthAdjust="spacingAndGlyphs" textLength="154" x="208.25" y="308.9102">AddReservationToRoomDto</text><line style="stroke: #A80036; stroke-width: 1.5;" x1="20.5" x2="517.5" y1="320" y2="320"/><rect fill="none" height="6" style="stroke: #C82930; stroke-width: 1.0;" width="6" x="27.5" y="329.418"/><text fill="#000000" font-family="sans-serif" font-size="11" lengthAdjust="spacingAndGlyphs" textLength="61" x="39.5" y="335.4189">Guid officeId</text><rect fill="none" height="6" style="stroke: #C82930; stroke-width: 1.0;" width="6" x="27.5" y="343.2539"/><text fill="#000000" font-family="sans-serif" font-size="11" lengthAdjust="spacingAndGlyphs" textLength="75" x="39.5" y="349.2549">int roomNumber</text><rect fill="none" height="6" style="stroke: #C82930; stroke-width: 1.0;" width="6" x="27.5" y="357.0898"/><text fill="#000000" font-family="sans-serif" font-size="11" lengthAdjust="spacingAndGlyphs" textLength="91" x="39.5" y="363.0908">DateTime startTime</text><rect fill="none" height="6" style="stroke: #C82930; stroke-width: 1.0;" width="6" x="27.5" y="370.9258"/><text fill="#000000" font-family="sans-serif" font-size="11" lengthAdjust="spacingAndGlyphs" textLength="87" x="39.5" y="376.9268">DateTime endTime</text><line style="stroke: #A80036; stroke-width: 1.5;" x1="20.5" x2="517.5" y1="383.3438" y2="383.3438"/><ellipse cx="30.5" cy="395.7617" fill="#84BE84" rx="3" ry="3" style="stroke: #038048; stroke-width: 1.0;"/><text fill="#000000" font-family="sans-serif" font-size="11" lengthAdjust="spacingAndGlyphs" textLength="473" x="39.5" y="398.7627">AddReservationToRoomDto(Guid officeId, int roomNumber, DateTime startTime, DateTime endTime)</text><!--class AddResourceToRoomDto--><rect fill="#FEFECE" filter="url(#f3kmoy3i7mnhm)" height="131.0156" id="AddResourceToRoomDto" style="stroke: #A80036; stroke-width: 1.5;" width="581" x="668.5" y="281"/><ellipse cx="883.75" cy="297" fill="#ADD1B2" rx="11" ry="11" style="stroke: #A80036; stroke-width: 1.0;"/><path d="M886.5156,292.875 Q886.6719,292.6563 886.8594,292.5469 Q887.0469,292.4375 887.2656,292.4375 Q887.6406,292.4375 887.875,292.6953 Q888.1094,292.9531 888.1094,293.5625 L888.1094,295.0156 Q888.1094,295.625 887.875,295.8906 Q887.6406,296.1563 887.2656,296.1563 Q886.9219,296.1563 886.7188,295.9531 Q886.5156,295.7656 886.4063,295.25 Q886.3594,294.8906 886.1719,294.7031 Q885.8438,294.3281 885.2344,294.1094 Q884.625,293.8906 884,293.8906 Q883.2344,293.8906 882.6016,294.2188 Q881.9688,294.5469 881.4766,295.2969 Q880.9844,296.0469 880.9844,297.0781 L880.9844,298.1719 Q880.9844,299.4063 881.875,300.2266 Q882.7656,301.0469 884.3594,301.0469 Q885.2969,301.0469 885.9531,300.7969 Q886.3438,300.6406 886.7656,300.2031 Q887.0313,299.9375 887.1797,299.8594 Q887.3281,299.7813 887.5313,299.7813 Q887.8594,299.7813 888.1172,300.0391 Q888.375,300.2969 888.375,300.6406 Q888.375,300.9844 888.0313,301.3906 Q887.5313,301.9688 886.7344,302.2969 Q885.6563,302.75 884.3594,302.75 Q882.8438,302.75 881.6406,302.125 Q880.6563,301.625 879.9688,300.5547 Q879.2813,299.4844 879.2813,298.2031 L879.2813,297.0469 Q879.2813,295.7188 879.8984,294.5703 Q880.5156,293.4219 881.6094,292.8047 Q882.7031,292.1875 883.9375,292.1875 Q884.6719,292.1875 885.3203,292.3516 Q885.9688,292.5156 886.5156,292.875 Z "/><text fill="#000000" font-family="sans-serif" font-size="12" lengthAdjust="spacingAndGlyphs" textLength="142" x="904.25" y="301.9102">AddResourceToRoomDto</text><line style="stroke: #A80036; stroke-width: 1.5;" x1="669.5" x2="1248.5" y1="313" y2="313"/><rect fill="none" height="6" style="stroke: #C82930; stroke-width: 1.0;" width="6" x="676.5" y="322.418"/><text fill="#000000" font-family="sans-serif" font-size="11" lengthAdjust="spacingAndGlyphs" textLength="61" x="688.5" y="328.4189">Guid officeId</text><rect fill="none" height="6" style="stroke: #C82930; stroke-width: 1.0;" width="6" x="676.5" y="336.2539"/><text fill="#000000" font-family="sans-serif" font-size="11" lengthAdjust="spacingAndGlyphs" textLength="57" x="688.5" y="342.2549">String name</text><rect fill="none" height="6" style="stroke: #C82930; stroke-width: 1.0;" width="6" x="676.5" y="350.0898"/><text fill="#000000" font-family="sans-serif" font-size="11" lengthAdjust="spacingAndGlyphs" textLength="75" x="688.5" y="356.0908">int roomNumber</text><rect fill="none" height="6" style="stroke: #C82930; stroke-width: 1.0;" width="6" x="676.5" y="363.9258"/><text fill="#000000" font-family="sans-serif" font-size="11" lengthAdjust="spacingAndGlyphs" textLength="68" x="688.5" y="369.9268">Bool canMove</text><rect fill="none" height="6" style="stroke: #C82930; stroke-width: 1.0;" width="6" x="676.5" y="377.7617"/><text fill="#000000" font-family="sans-serif" font-size="11" lengthAdjust="spacingAndGlyphs" textLength="142" x="688.5" y="383.7627">ResourceType resourceType</text><line style="stroke: #A80036; stroke-width: 1.5;" x1="669.5" x2="1248.5" y1="390.1797" y2="390.1797"/><ellipse cx="679.5" cy="402.5977" fill="#84BE84" rx="3" ry="3" style="stroke: #038048; stroke-width: 1.0;"/><text fill="#000000" font-family="sans-serif" font-size="11" lengthAdjust="spacingAndGlyphs" textLength="555" x="688.5" y="405.5986">AddResourceToRoomDto(Guid officeId, string name, int roomNumber, bool canMove, ResourceType resourceType)</text><!--class DeleteResourceFromRoomDto--><rect fill="#FEFECE" filter="url(#f3kmoy3i7mnhm)" height="103.3438" id="DeleteResourceFromRoomDto" style="stroke: #A80036; stroke-width: 1.5;" width="421" x="1399.5" y="295"/><ellipse cx="1519.75" cy="311" fill="#ADD1B2" rx="11" ry="11" style="stroke: #A80036; stroke-width: 1.0;"/><path d="M1522.5156,306.875 Q1522.6719,306.6563 1522.8594,306.5469 Q1523.0469,306.4375 1523.2656,306.4375 Q1523.6406,306.4375 1523.875,306.6953 Q1524.1094,306.9531 1524.1094,307.5625 L1524.1094,309.0156 Q1524.1094,309.625 1523.875,309.8906 Q1523.6406,310.1563 1523.2656,310.1563 Q1522.9219,310.1563 1522.7188,309.9531 Q1522.5156,309.7656 1522.4063,309.25 Q1522.3594,308.8906 1522.1719,308.7031 Q1521.8438,308.3281 1521.2344,308.1094 Q1520.625,307.8906 1520,307.8906 Q1519.2344,307.8906 1518.6016,308.2188 Q1517.9688,308.5469 1517.4766,309.2969 Q1516.9844,310.0469 1516.9844,311.0781 L1516.9844,312.1719 Q1516.9844,313.4063 1517.875,314.2266 Q1518.7656,315.0469 1520.3594,315.0469 Q1521.2969,315.0469 1521.9531,314.7969 Q1522.3438,314.6406 1522.7656,314.2031 Q1523.0313,313.9375 1523.1797,313.8594 Q1523.3281,313.7813 1523.5313,313.7813 Q1523.8594,313.7813 1524.1172,314.0391 Q1524.375,314.2969 1524.375,314.6406 Q1524.375,314.9844 1524.0313,315.3906 Q1523.5313,315.9688 1522.7344,316.2969 Q1521.6563,316.75 1520.3594,316.75 Q1518.8438,316.75 1517.6406,316.125 Q1516.6563,315.625 1515.9688,314.5547 Q1515.2813,313.4844 1515.2813,312.2031 L1515.2813,311.0469 Q1515.2813,309.7188 1515.8984,308.5703 Q1516.5156,307.4219 1517.6094,306.8047 Q1518.7031,306.1875 1519.9375,306.1875 Q1520.6719,306.1875 1521.3203,306.3516 Q1521.9688,306.5156 1522.5156,306.875 Z "/><text fill="#000000" font-family="sans-serif" font-size="12" lengthAdjust="spacingAndGlyphs" textLength="172" x="1540.25" y="315.9102">DeleteResourceFromRoomDto</text><line style="stroke: #A80036; stroke-width: 1.5;" x1="1400.5" x2="1819.5" y1="327" y2="327"/><rect fill="none" height="6" style="stroke: #C82930; stroke-width: 1.0;" width="6" x="1407.5" y="336.418"/><text fill="#000000" font-family="sans-serif" font-size="11" lengthAdjust="spacingAndGlyphs" textLength="61" x="1419.5" y="342.4189">Guid officeId</text><rect fill="none" height="6" style="stroke: #C82930; stroke-width: 1.0;" width="6" x="1407.5" y="350.2539"/><text fill="#000000" font-family="sans-serif" font-size="11" lengthAdjust="spacingAndGlyphs" textLength="75" x="1419.5" y="356.2549">int roomNumber</text><rect fill="none" height="6" style="stroke: #C82930; stroke-width: 1.0;" width="6" x="1407.5" y="364.0898"/><text fill="#000000" font-family="sans-serif" font-size="11" lengthAdjust="spacingAndGlyphs" textLength="95" x="1419.5" y="370.0908">Int resourceNumber</text><line style="stroke: #A80036; stroke-width: 1.5;" x1="1400.5" x2="1819.5" y1="376.5078" y2="376.5078"/><ellipse cx="1410.5" cy="388.9258" fill="#84BE84" rx="3" ry="3" style="stroke: #038048; stroke-width: 1.0;"/><text fill="#000000" font-family="sans-serif" font-size="11" lengthAdjust="spacingAndGlyphs" textLength="395" x="1419.5" y="391.9268">DeleteResourceFromRoomDto(Guid officeId, int roomNumber, int resourceNumber)</text><!--class AddResourceToReservationDto--><rect fill="#FEFECE" filter="url(#f3kmoy3i7mnhm)" height="117.1797" id="AddResourceToReservationDto" style="stroke: #A80036; stroke-width: 1.5;" width="526" x="6" y="533"/><ellipse cx="177.75" cy="549" fill="#ADD1B2" rx="11" ry="11" style="stroke: #A80036; stroke-width: 1.0;"/><path d="M180.5156,544.875 Q180.6719,544.6563 180.8594,544.5469 Q181.0469,544.4375 181.2656,544.4375 Q181.6406,544.4375 181.875,544.6953 Q182.1094,544.9531 182.1094,545.5625 L182.1094,547.0156 Q182.1094,547.625 181.875,547.8906 Q181.6406,548.1563 181.2656,548.1563 Q180.9219,548.1563 180.7188,547.9531 Q180.5156,547.7656 180.4063,547.25 Q180.3594,546.8906 180.1719,546.7031 Q179.8438,546.3281 179.2344,546.1094 Q178.625,545.8906 178,545.8906 Q177.2344,545.8906 176.6016,546.2188 Q175.9688,546.5469 175.4766,547.2969 Q174.9844,548.0469 174.9844,549.0781 L174.9844,550.1719 Q174.9844,551.4063 175.875,552.2266 Q176.7656,553.0469 178.3594,553.0469 Q179.2969,553.0469 179.9531,552.7969 Q180.3438,552.6406 180.7656,552.2031 Q181.0313,551.9375 181.1797,551.8594 Q181.3281,551.7813 181.5313,551.7813 Q181.8594,551.7813 182.1172,552.0391 Q182.375,552.2969 182.375,552.6406 Q182.375,552.9844 182.0313,553.3906 Q181.5313,553.9688 180.7344,554.2969 Q179.6563,554.75 178.3594,554.75 Q176.8438,554.75 175.6406,554.125 Q174.6563,553.625 173.9688,552.5547 Q173.2813,551.4844 173.2813,550.2031 L173.2813,549.0469 Q173.2813,547.7188 173.8984,546.5703 Q174.5156,545.4219 175.6094,544.8047 Q176.7031,544.1875 177.9375,544.1875 Q178.6719,544.1875 179.3203,544.3516 Q179.9688,544.5156 180.5156,544.875 Z "/><text fill="#000000" font-family="sans-serif" font-size="12" lengthAdjust="spacingAndGlyphs" textLength="174" x="198.25" y="553.9102">AddResourceToReservationDto</text><line style="stroke: #A80036; stroke-width: 1.5;" x1="7" x2="531" y1="565" y2="565"/><rect fill="none" height="6" style="stroke: #C82930; stroke-width: 1.0;" width="6" x="14" y="574.418"/><text fill="#000000" font-family="sans-serif" font-size="11" lengthAdjust="spacingAndGlyphs" textLength="61" x="26" y="580.4189">Guid officeId</text><rect fill="none" height="6" style="stroke: #C82930; stroke-width: 1.0;" width="6" x="14" y="588.2539"/><text fill="#000000" font-family="sans-serif" font-size="11" lengthAdjust="spacingAndGlyphs" textLength="95" x="26" y="594.2549">Int resourceNumber</text><rect fill="none" height="6" style="stroke: #C82930; stroke-width: 1.0;" width="6" x="14" y="602.0898"/><text fill="#000000" font-family="sans-serif" font-size="11" lengthAdjust="spacingAndGlyphs" textLength="106" x="26" y="608.0908">Int reservationNumber</text><rect fill="none" height="6" style="stroke: #C82930; stroke-width: 1.0;" width="6" x="14" y="615.9258"/><text fill="#000000" font-family="sans-serif" font-size="11" lengthAdjust="spacingAndGlyphs" textLength="75" x="26" y="621.9268">Int roomNumber</text><line style="stroke: #A80036; stroke-width: 1.5;" x1="7" x2="531" y1="628.3438" y2="628.3438"/><ellipse cx="17" cy="640.7617" fill="#84BE84" rx="3" ry="3" style="stroke: #038048; stroke-width: 1.0;"/><text fill="#000000" font-family="sans-serif" font-size="11" lengthAdjust="spacingAndGlyphs" textLength="500" x="26" y="643.7627">AddResourceToReservation(Guid officeId, int resourceNumber, int reservationNumber, int roomNumber)</text><!--class ReturnOfficeDetailDto--><rect fill="#FEFECE" filter="url(#f3kmoy3i7mnhm)" height="158.6875" id="ReturnOfficeDetailDto" style="stroke: #A80036; stroke-width: 1.5;" width="739" x="682.5" y="512"/><ellipse cx="988.25" cy="528" fill="#ADD1B2" rx="11" ry="11" style="stroke: #A80036; stroke-width: 1.0;"/><path d="M991.0156,523.875 Q991.1719,523.6563 991.3594,523.5469 Q991.5469,523.4375 991.7656,523.4375 Q992.1406,523.4375 992.375,523.6953 Q992.6094,523.9531 992.6094,524.5625 L992.6094,526.0156 Q992.6094,526.625 992.375,526.8906 Q992.1406,527.1563 991.7656,527.1563 Q991.4219,527.1563 991.2188,526.9531 Q991.0156,526.7656 990.9063,526.25 Q990.8594,525.8906 990.6719,525.7031 Q990.3438,525.3281 989.7344,525.1094 Q989.125,524.8906 988.5,524.8906 Q987.7344,524.8906 987.1016,525.2188 Q986.4688,525.5469 985.9766,526.2969 Q985.4844,527.0469 985.4844,528.0781 L985.4844,529.1719 Q985.4844,530.4063 986.375,531.2266 Q987.2656,532.0469 988.8594,532.0469 Q989.7969,532.0469 990.4531,531.7969 Q990.8438,531.6406 991.2656,531.2031 Q991.5313,530.9375 991.6797,530.8594 Q991.8281,530.7813 992.0313,530.7813 Q992.3594,530.7813 992.6172,531.0391 Q992.875,531.2969 992.875,531.6406 Q992.875,531.9844 992.5313,532.3906 Q992.0313,532.9688 991.2344,533.2969 Q990.1563,533.75 988.8594,533.75 Q987.3438,533.75 986.1406,533.125 Q985.1563,532.625 984.4688,531.5547 Q983.7813,530.4844 983.7813,529.2031 L983.7813,528.0469 Q983.7813,526.7188 984.3984,525.5703 Q985.0156,524.4219 986.1094,523.8047 Q987.2031,523.1875 988.4375,523.1875 Q989.1719,523.1875 989.8203,523.3516 Q990.4688,523.5156 991.0156,523.875 Z "/><text fill="#000000" font-family="sans-serif" font-size="12" lengthAdjust="spacingAndGlyphs" textLength="119" x="1008.75" y="532.9102">ReturnOfficeDetailDto</text><line style="stroke: #A80036; stroke-width: 1.5;" x1="683.5" x2="1420.5" y1="544" y2="544"/><rect fill="none" height="6" style="stroke: #C82930; stroke-width: 1.0;" width="6" x="690.5" y="553.418"/><text fill="#000000" font-family="sans-serif" font-size="11" lengthAdjust="spacingAndGlyphs" textLength="33" x="702.5" y="559.4189">Guid id</text><rect fill="none" height="6" style="stroke: #C82930; stroke-width: 1.0;" width="6" x="690.5" y="567.2539"/><text fill="#000000" font-family="sans-serif" font-size="11" lengthAdjust="spacingAndGlyphs" textLength="57" x="702.5" y="573.2549">String name</text><rect fill="none" height="6" style="stroke: #C82930; stroke-width: 1.0;" width="6" x="690.5" y="581.0898"/><text fill="#000000" font-family="sans-serif" font-size="11" lengthAdjust="spacingAndGlyphs" textLength="68" x="702.5" y="587.0908">String location</text><rect fill="none" height="6" style="stroke: #C82930; stroke-width: 1.0;" width="6" x="690.5" y="594.9258"/><text fill="#000000" font-family="sans-serif" font-size="11" lengthAdjust="spacingAndGlyphs" textLength="94" x="702.5" y="600.9268">DateTime openHour</text><rect fill="none" height="6" style="stroke: #C82930; stroke-width: 1.0;" width="6" x="690.5" y="608.7617"/><text fill="#000000" font-family="sans-serif" font-size="11" lengthAdjust="spacingAndGlyphs" textLength="96" x="702.5" y="614.7627">DateTime closeHour</text><rect fill="none" height="6" style="stroke: #C82930; stroke-width: 1.0;" width="6" x="690.5" y="622.5977"/><text fill="#000000" font-family="sans-serif" font-size="11" lengthAdjust="spacingAndGlyphs" textLength="89" x="702.5" y="628.5986">List&lt;Room&gt; rooms</text><rect fill="none" height="6" style="stroke: #C82930; stroke-width: 1.0;" width="6" x="690.5" y="636.4336"/><text fill="#000000" font-family="sans-serif" font-size="11" lengthAdjust="spacingAndGlyphs" textLength="130" x="702.5" y="642.4346">List&lt;Employee&gt; employees</text><line style="stroke: #A80036; stroke-width: 1.5;" x1="683.5" x2="1420.5" y1="648.8516" y2="648.8516"/><ellipse cx="693.5" cy="661.2695" fill="#84BE84" rx="3" ry="3" style="stroke: #038048; stroke-width: 1.0;"/><text fill="#000000" font-family="sans-serif" font-size="11" lengthAdjust="spacingAndGlyphs" textLength="713" x="702.5" y="664.2705">ReturnOfficeDetailDto(Guid id, string name, string location, DateTime openHour, DateTime closeHour, List&lt;Room&gt; rooms, List&lt;Employee&gt; employees)</text><!--class OfficeAppService--><rect fill="#FEFECE" filter="url(#f3kmoy3i7mnhm)" height="75.6719" id="OfficeAppService" style="stroke: #A80036; stroke-width: 1.5;" width="288" x="1971" y="308.5"/><ellipse cx="2064.75" cy="324.5" fill="#ADD1B2" rx="11" ry="11" style="stroke: #A80036; stroke-width: 1.0;"/><path d="M2067.5156,320.375 Q2067.6719,320.1563 2067.8594,320.0469 Q2068.0469,319.9375 2068.2656,319.9375 Q2068.6406,319.9375 2068.875,320.1953 Q2069.1094,320.4531 2069.1094,321.0625 L2069.1094,322.5156 Q2069.1094,323.125 2068.875,323.3906 Q2068.6406,323.6563 2068.2656,323.6563 Q2067.9219,323.6563 2067.7188,323.4531 Q2067.5156,323.2656 2067.4063,322.75 Q2067.3594,322.3906 2067.1719,322.2031 Q2066.8438,321.8281 2066.2344,321.6094 Q2065.625,321.3906 2065,321.3906 Q2064.2344,321.3906 2063.6016,321.7188 Q2062.9688,322.0469 2062.4766,322.7969 Q2061.9844,323.5469 2061.9844,324.5781 L2061.9844,325.6719 Q2061.9844,326.9063 2062.875,327.7266 Q2063.7656,328.5469 2065.3594,328.5469 Q2066.2969,328.5469 2066.9531,328.2969 Q2067.3438,328.1406 2067.7656,327.7031 Q2068.0313,327.4375 2068.1797,327.3594 Q2068.3281,327.2813 2068.5313,327.2813 Q2068.8594,327.2813 2069.1172,327.5391 Q2069.375,327.7969 2069.375,328.1406 Q2069.375,328.4844 2069.0313,328.8906 Q2068.5313,329.4688 2067.7344,329.7969 Q2066.6563,330.25 2065.3594,330.25 Q2063.8438,330.25 2062.6406,329.625 Q2061.6563,329.125 2060.9688,328.0547 Q2060.2813,326.9844 2060.2813,325.7031 L2060.2813,324.5469 Q2060.2813,323.2188 2060.8984,322.0703 Q2061.5156,320.9219 2062.6094,320.3047 Q2063.7031,319.6875 2064.9375,319.6875 Q2065.6719,319.6875 2066.3203,319.8516 Q2066.9688,320.0156 2067.5156,320.375 Z "/><text fill="#000000" font-family="sans-serif" font-size="12" lengthAdjust="spacingAndGlyphs" textLength="92" x="2085.25" y="329.4102">OfficeAppService</text><line style="stroke: #A80036; stroke-width: 1.5;" x1="1972" x2="2258" y1="340.5" y2="340.5"/><rect fill="none" height="6" style="stroke: #C82930; stroke-width: 1.0;" width="6" x="1979" y="349.918"/><text fill="#000000" font-family="sans-serif" font-size="11" lengthAdjust="spacingAndGlyphs" textLength="167" x="1991" y="355.9189">IOfficeRepository officeRepository</text><line style="stroke: #A80036; stroke-width: 1.5;" x1="1972" x2="2258" y1="362.3359" y2="362.3359"/><ellipse cx="1982" cy="374.7539" fill="#84BE84" rx="3" ry="3" style="stroke: #038048; stroke-width: 1.0;"/><text fill="#000000" font-family="sans-serif" font-size="11" lengthAdjust="spacingAndGlyphs" textLength="262" x="1991" y="377.7549">OfficeAppService(IOfficeRepository officeRepository)</text><!--class IOfficeAppService--><rect fill="#FEFECE" filter="url(#f3kmoy3i7mnhm)" height="172.5234" id="IOfficeAppService" style="stroke: #A80036; stroke-width: 1.5;" width="467" x="1881.5" y="8"/><ellipse cx="2061.75" cy="24" fill="#B4A7E5" rx="11" ry="11" style="stroke: #A80036; stroke-width: 1.0;"/><path d="M2062.7031,20.6406 L2062.7031,27.2969 L2064.4219,27.2969 Q2065.0313,27.2969 2065.2969,27.5313 Q2065.5625,27.7656 2065.5625,28.1563 Q2065.5625,28.5313 2065.2969,28.7656 Q2065.0313,29 2064.4219,29 L2059.2813,29 Q2058.6719,29 2058.4063,28.7656 Q2058.1406,28.5313 2058.1406,28.1406 Q2058.1406,27.7656 2058.4063,27.5313 Q2058.6719,27.2969 2059.2813,27.2969 L2061,27.2969 L2061,20.6406 L2059.2813,20.6406 Q2058.6719,20.6406 2058.4063,20.4063 Q2058.1406,20.1719 2058.1406,19.7813 Q2058.1406,19.4063 2058.4063,19.1719 Q2058.6719,18.9375 2059.2813,18.9375 L2064.4219,18.9375 Q2065.0313,18.9375 2065.2969,19.1719 Q2065.5625,19.4063 2065.5625,19.7813 Q2065.5625,20.1719 2065.2969,20.4063 Q2065.0313,20.6406 2064.4219,20.6406 L2062.7031,20.6406 Z "/><text fill="#000000" font-family="sans-serif" font-size="12" font-style="italic" lengthAdjust="spacingAndGlyphs" textLength="98" x="2082.25" y="28.9102">IOfficeAppService</text><line style="stroke: #A80036; stroke-width: 1.5;" x1="1882.5" x2="2347.5" y1="40" y2="40"/><line style="stroke: #A80036; stroke-width: 1.5;" x1="1882.5" x2="2347.5" y1="48" y2="48"/><text fill="#000000" font-family="sans-serif" font-size="11" lengthAdjust="spacingAndGlyphs" textLength="212" x="1887.5" y="63.4189">List&lt;ReturnOfficeDetailDto&gt; GetAllOffices();</text><text fill="#000000" font-family="sans-serif" font-size="11" lengthAdjust="spacingAndGlyphs" textLength="219" x="1887.5" y="77.2549">ReturnOfficeDetailDto GetOfficeById(Guid id);</text><text fill="#000000" font-family="sans-serif" font-size="11" lengthAdjust="spacingAndGlyphs" textLength="338" x="1887.5" y="91.0908">ReturnOfficeDetailDto CreateOffice(CreateOfficeDto createOfficeDto);</text><text fill="#000000" font-family="sans-serif" font-size="11" lengthAdjust="spacingAndGlyphs" textLength="242" x="1887.5" y="104.9268">AddEmployee(AddEmployeeDto addEmployeeDto);</text><text fill="#000000" font-family="sans-serif" font-size="11" lengthAdjust="spacingAndGlyphs" textLength="185" x="1887.5" y="118.7627">AddRoom(AddRoomDto addRoomDto);</text><text fill="#000000" font-family="sans-serif" font-size="11" lengthAdjust="spacingAndGlyphs" textLength="395" x="1887.5" y="132.5986">AddReservationToRoom(AddReservationToRoomDto addReservationToRoomDto);</text><text fill="#000000" font-family="sans-serif" font-size="11" lengthAdjust="spacingAndGlyphs" textLength="362" x="1887.5" y="146.4346">AddResourceToRoom(AddResourceToRoomDto addResourceToRoomDto);</text><text fill="#000000" font-family="sans-serif" font-size="11" lengthAdjust="spacingAndGlyphs" textLength="429" x="1887.5" y="160.2705">DeleteResourceFromRoom(DeleteResourceFromRoomDto deleteResourceFromRoomDto);</text><text fill="#000000" font-family="sans-serif" font-size="11" lengthAdjust="spacingAndGlyphs" textLength="455" x="1887.5" y="174.1064">AddResourceToReservation(AddResourceToReservationDto addResourceToReservationDto);</text><!--link IOfficeAppService to OfficeAppService--><path d="M2115,201.423 C2115,239.551 2115,280.103 2115,308.439 " fill="none" id="IOfficeAppService-OfficeAppService" style="stroke: #A80036; stroke-width: 1.0; stroke-dasharray: 7.0,7.0;"/><polygon fill="none" points="2108,201.186,2115,181.186,2122,201.186,2108,201.186" style="stroke: #A80036; stroke-width: 1.0;"/><!--link CreateOfficeDto to AddEmployeeDto--><!--link AddEmployeeDto to AddRoomDto--><!--link CreateOfficeDto to AddReservationToRoomDto--><!--link AddReservationToRoomDto to AddResourceToRoomDto--><!--link AddResourceToRoomDto to DeleteResourceFromRoomDto--><!--link AddReservationToRoomDto to AddResourceToReservationDto--><!--link AddResourceToReservationDto to ReturnOfficeDetailDto--><!--
@startuml "Casus"

skinparam nodesep 150
skinparam ranksep 100

Class "CreateOfficeDto" as CreateOfficeDto
Class "AddEmployeeDto" as AddEmployeeDto
Class "AddRoomDto" as AddRoomDto
Class "AddReservationToRoomDto" as AddReservationToRoomDto
Class "AddResourceToRoomDto" as AddResourceToRoomDto
Class "DeleteResourceFromRoomDto" as DeleteResourceFromRoomDto
Class "AddResourceToReservationDto" as AddResourceToReservationDto
Class "ReturnOfficeDetailDto" as ReturnOfficeDetailDto

Class "OfficeAppService" as OfficeAppService

Interface "IOfficeAppService" as IOfficeAppService

IOfficeAppService <|.. OfficeAppService

Class CreateOfficeDto {
    -String name
    -String location
    -DateTime openHour
    -DateTime closeHour
    +CreateOfficeDto(string name, string location, DateTime openHour, DateTime closeHour)
}

Class AddEmployeeDto {
    -Guid officeId
    -String name
    -String lastName
    -String email
    +AddEmployeeDto(Guid officeId, string name, string lastName, string email)
}

Class AddRoomDto {
    -Guid officeId
    -Int maxCapacity
    -Int chairs
    +AddRoomDto(Guid officeId, int maxCapacity, int chairs)
}

Class AddReservationToRoomDto {
    -Guid officeId
    -int roomNumber
    -DateTime startTime
    -DateTime endTime
    +AddReservationToRoomDto(Guid officeId, int roomNumber, DateTime startTime, DateTime endTime)
}

Class AddResourceToRoomDto {
    -Guid officeId
    -String name
    -int roomNumber
    -Bool canMove
    -ResourceType resourceType
    +AddResourceToRoomDto(Guid officeId, string name, int roomNumber, bool canMove, ResourceType resourceType)
}

Class DeleteResourceFromRoomDto {
    -Guid officeId
    -int roomNumber
    -Int resourceNumber
    +DeleteResourceFromRoomDto(Guid officeId, int roomNumber, int resourceNumber)
}

Class AddResourceToReservationDto {
    -Guid officeId
    -Int resourceNumber
    -Int reservationNumber
    -Int roomNumber
    +AddResourceToReservation(Guid officeId, int resourceNumber, int reservationNumber, int roomNumber)
}

Class ReturnOfficeDetailDto {
    -Guid id
    -String name
    -String location
    -DateTime openHour
    -DateTime closeHour
    -List<Room> rooms
    -List<Employee> employees
    +ReturnOfficeDetailDto(Guid id, string name, string location, DateTime openHour, DateTime closeHour, List<Room> rooms, List<Employee> employees)
}

Interface IOfficeAppService {
    List<ReturnOfficeDetailDto> GetAllOffices();
    ReturnOfficeDetailDto GetOfficeById(Guid id);
    ReturnOfficeDetailDto CreateOffice(CreateOfficeDto createOfficeDto);
    AddEmployee(AddEmployeeDto addEmployeeDto);
    AddRoom(AddRoomDto addRoomDto);
    AddReservationToRoom(AddReservationToRoomDto addReservationToRoomDto);
    AddResourceToRoom(AddResourceToRoomDto addResourceToRoomDto);
    DeleteResourceFromRoom(DeleteResourceFromRoomDto deleteResourceFromRoomDto);
    AddResourceToReservation(AddResourceToReservationDto addResourceToReservationDto);
}

Class OfficeAppService {
    -IOfficeRepository officeRepository
    +OfficeAppService(IOfficeRepository officeRepository)
}


@enduml

PlantUML version 1.2018.03(Thu Apr 05 18:59:15 CEST 2018)
(GPL source distribution)
Java Runtime: Java(TM) SE Runtime Environment
JVM: Java HotSpot(TM) 64-Bit Server VM
Java Version: 1.8.0_181-b13
Operating System: Windows 10
OS Version: 10.0
Default Encoding: Cp1252
Language: en
Country: US
--></g></svg>