<?xml version="1.0" encoding="UTF-8" standalone="no"?><svg xmlns="http://www.w3.org/2000/svg" xmlns:xlink="http://www.w3.org/1999/xlink" contentScriptType="application/ecmascript" contentStyleType="text/css" height="720px" preserveAspectRatio="none" style="width:1326px;height:720px;" version="1.1" viewBox="0 0 1326 720" width="1326px" zoomAndPan="magnify"><defs><filter height="300%" id="fzhave7j837xp" width="300%" x="-1" y="-1"><feGaussianBlur result="blurOut" stdDeviation="2.0"/><feColorMatrix in="blurOut" result="blurOut2" type="matrix" values="0 0 0 0 0 0 0 0 0 0 0 0 0 0 0 0 0 0 .4 0"/><feOffset dx="4.0" dy="4.0" in="blurOut2" result="blurOut3"/><feBlend in="SourceGraphic" in2="blurOut3" mode="normal"/></filter></defs><g><!--class Office--><rect fill="#FEFECE" filter="url(#fzhave7j837xp)" height="180.7109" id="Office" style="stroke: #A80036; stroke-width: 1.5;" width="395" x="168.5" y="8"/><ellipse cx="342.25" cy="28.0938" fill="#ADD1B2" rx="11" ry="11" style="stroke: #A80036; stroke-width: 1.0;"/><path d="M345.0156,23.9688 Q345.1719,23.75 345.3594,23.6406 Q345.5469,23.5313 345.7656,23.5313 Q346.1406,23.5313 346.375,23.7891 Q346.6094,24.0469 346.6094,24.6563 L346.6094,26.1094 Q346.6094,26.7188 346.375,26.9844 Q346.1406,27.25 345.7656,27.25 Q345.4219,27.25 345.2188,27.0469 Q345.0156,26.8594 344.9063,26.3438 Q344.8594,25.9844 344.6719,25.7969 Q344.3438,25.4219 343.7344,25.2031 Q343.125,24.9844 342.5,24.9844 Q341.7344,24.9844 341.1016,25.3125 Q340.4688,25.6406 339.9766,26.3906 Q339.4844,27.1406 339.4844,28.1719 L339.4844,29.2656 Q339.4844,30.5 340.375,31.3203 Q341.2656,32.1406 342.8594,32.1406 Q343.7969,32.1406 344.4531,31.8906 Q344.8438,31.7344 345.2656,31.2969 Q345.5313,31.0313 345.6797,30.9531 Q345.8281,30.875 346.0313,30.875 Q346.3594,30.875 346.6172,31.1328 Q346.875,31.3906 346.875,31.7344 Q346.875,32.0781 346.5313,32.4844 Q346.0313,33.0625 345.2344,33.3906 Q344.1563,33.8438 342.8594,33.8438 Q341.3438,33.8438 340.1406,33.2188 Q339.1563,32.7188 338.4688,31.6484 Q337.7813,30.5781 337.7813,29.2969 L337.7813,28.1406 Q337.7813,26.8125 338.3984,25.6641 Q339.0156,24.5156 340.1094,23.8984 Q341.2031,23.2813 342.4375,23.2813 Q343.1719,23.2813 343.8203,23.4453 Q344.4688,23.6094 345.0156,23.9688 Z "/><text fill="#000000" font-family="sans-serif" font-size="12" font-style="italic" lengthAdjust="spacingAndGlyphs" textLength="43" x="360.75" y="25.457">«entity»</text><text fill="#000000" font-family="sans-serif" font-size="12" lengthAdjust="spacingAndGlyphs" textLength="31" x="366.75" y="40.5508">Office</text><line style="stroke: #A80036; stroke-width: 1.5;" x1="169.5" x2="562.5" y1="48.1875" y2="48.1875"/><rect fill="none" height="6" style="stroke: #C82930; stroke-width: 1.0;" width="6" x="176.5" y="57.6055"/><text fill="#000000" font-family="sans-serif" font-size="11" lengthAdjust="spacingAndGlyphs" textLength="33" x="188.5" y="63.6064">Guid id</text><rect fill="none" height="6" style="stroke: #C82930; stroke-width: 1.0;" width="6" x="176.5" y="71.4414"/><text fill="#000000" font-family="sans-serif" font-size="11" lengthAdjust="spacingAndGlyphs" textLength="57" x="188.5" y="77.4424">String name</text><rect fill="none" height="6" style="stroke: #C82930; stroke-width: 1.0;" width="6" x="176.5" y="85.2773"/><text fill="#000000" font-family="sans-serif" font-size="11" lengthAdjust="spacingAndGlyphs" textLength="68" x="188.5" y="91.2783">String location</text><rect fill="none" height="6" style="stroke: #C82930; stroke-width: 1.0;" width="6" x="176.5" y="99.1133"/><text fill="#000000" font-family="sans-serif" font-size="11" lengthAdjust="spacingAndGlyphs" textLength="94" x="188.5" y="105.1143">DateTime openHour</text><rect fill="none" height="6" style="stroke: #C82930; stroke-width: 1.0;" width="6" x="176.5" y="112.9492"/><text fill="#000000" font-family="sans-serif" font-size="11" lengthAdjust="spacingAndGlyphs" textLength="96" x="188.5" y="118.9502">DateTime closeHour</text><line style="stroke: #A80036; stroke-width: 1.5;" x1="169.5" x2="562.5" y1="125.3672" y2="125.3672"/><ellipse cx="179.5" cy="137.7852" fill="#84BE84" rx="3" ry="3" style="stroke: #038048; stroke-width: 1.0;"/><text fill="#000000" font-family="sans-serif" font-size="11" lengthAdjust="spacingAndGlyphs" textLength="369" x="188.5" y="140.7861">Office(string name, string location, DateTime openHour, DateTime closeHour)</text><ellipse cx="179.5" cy="151.6211" fill="#84BE84" rx="3" ry="3" style="stroke: #038048; stroke-width: 1.0;"/><text fill="#000000" font-family="sans-serif" font-size="11" lengthAdjust="spacingAndGlyphs" textLength="109" x="188.5" y="154.6221">AddRoom(Room room)</text><ellipse cx="179.5" cy="165.457" fill="#84BE84" rx="3" ry="3" style="stroke: #038048; stroke-width: 1.0;"/><text fill="#000000" font-family="sans-serif" font-size="11" lengthAdjust="spacingAndGlyphs" textLength="169" x="188.5" y="168.458">AddEmployee(Employee employee)</text><ellipse cx="179.5" cy="179.293" fill="#84BE84" rx="3" ry="3" style="stroke: #038048; stroke-width: 1.0;"/><text fill="#000000" font-family="sans-serif" font-size="11" lengthAdjust="spacingAndGlyphs" textLength="207" x="188.5" y="182.2939">Room GetRoomByNumber(int roomNumber)</text><!--class Employee--><rect fill="#FEFECE" filter="url(#fzhave7j837xp)" height="125.3672" id="Employee" style="stroke: #A80036; stroke-width: 1.5;" width="272" x="6" y="324"/><ellipse cx="99.25" cy="344.0938" fill="#ADD1B2" rx="11" ry="11" style="stroke: #A80036; stroke-width: 1.0;"/><path d="M102.0156,339.9688 Q102.1719,339.75 102.3594,339.6406 Q102.5469,339.5313 102.7656,339.5313 Q103.1406,339.5313 103.375,339.7891 Q103.6094,340.0469 103.6094,340.6563 L103.6094,342.1094 Q103.6094,342.7188 103.375,342.9844 Q103.1406,343.25 102.7656,343.25 Q102.4219,343.25 102.2188,343.0469 Q102.0156,342.8594 101.9063,342.3438 Q101.8594,341.9844 101.6719,341.7969 Q101.3438,341.4219 100.7344,341.2031 Q100.125,340.9844 99.5,340.9844 Q98.7344,340.9844 98.1016,341.3125 Q97.4688,341.6406 96.9766,342.3906 Q96.4844,343.1406 96.4844,344.1719 L96.4844,345.2656 Q96.4844,346.5 97.375,347.3203 Q98.2656,348.1406 99.8594,348.1406 Q100.7969,348.1406 101.4531,347.8906 Q101.8438,347.7344 102.2656,347.2969 Q102.5313,347.0313 102.6797,346.9531 Q102.8281,346.875 103.0313,346.875 Q103.3594,346.875 103.6172,347.1328 Q103.875,347.3906 103.875,347.7344 Q103.875,348.0781 103.5313,348.4844 Q103.0313,349.0625 102.2344,349.3906 Q101.1563,349.8438 99.8594,349.8438 Q98.3438,349.8438 97.1406,349.2188 Q96.1563,348.7188 95.4688,347.6484 Q94.7813,346.5781 94.7813,345.2969 L94.7813,344.1406 Q94.7813,342.8125 95.3984,341.6641 Q96.0156,340.5156 97.1094,339.8984 Q98.2031,339.2813 99.4375,339.2813 Q100.1719,339.2813 100.8203,339.4453 Q101.4688,339.6094 102.0156,339.9688 Z "/><text fill="#000000" font-family="sans-serif" font-size="12" font-style="italic" lengthAdjust="spacingAndGlyphs" textLength="81" x="117.75" y="341.457">«value object»</text><text fill="#000000" font-family="sans-serif" font-size="12" lengthAdjust="spacingAndGlyphs" textLength="55" x="130.75" y="356.5508">Employee</text><line style="stroke: #A80036; stroke-width: 1.5;" x1="7" x2="277" y1="364.1875" y2="364.1875"/><rect fill="none" height="6" style="stroke: #C82930; stroke-width: 1.0;" width="6" x="14" y="373.6055"/><text fill="#000000" font-family="sans-serif" font-size="11" lengthAdjust="spacingAndGlyphs" textLength="33" x="26" y="379.6064">Guid id</text><rect fill="none" height="6" style="stroke: #C82930; stroke-width: 1.0;" width="6" x="14" y="387.4414"/><text fill="#000000" font-family="sans-serif" font-size="11" lengthAdjust="spacingAndGlyphs" textLength="57" x="26" y="393.4424">String name</text><rect fill="none" height="6" style="stroke: #C82930; stroke-width: 1.0;" width="6" x="14" y="401.2773"/><text fill="#000000" font-family="sans-serif" font-size="11" lengthAdjust="spacingAndGlyphs" textLength="75" x="26" y="407.2783">String lastName</text><rect fill="none" height="6" style="stroke: #C82930; stroke-width: 1.0;" width="6" x="14" y="415.1133"/><text fill="#000000" font-family="sans-serif" font-size="11" lengthAdjust="spacingAndGlyphs" textLength="55" x="26" y="421.1143">String email</text><line style="stroke: #A80036; stroke-width: 1.5;" x1="7" x2="277" y1="427.5313" y2="427.5313"/><ellipse cx="17" cy="439.9492" fill="#84BE84" rx="3" ry="3" style="stroke: #038048; stroke-width: 1.0;"/><text fill="#000000" font-family="sans-serif" font-size="11" lengthAdjust="spacingAndGlyphs" textLength="246" x="26" y="442.9502">Employee(sring name, string lastname, string email)</text><!--class Room--><rect fill="#FEFECE" filter="url(#fzhave7j837xp)" height="194.5469" id="Room" style="stroke: #A80036; stroke-width: 1.5;" width="326" x="428" y="289"/><ellipse cx="548.25" cy="309.0938" fill="#ADD1B2" rx="11" ry="11" style="stroke: #A80036; stroke-width: 1.0;"/><path d="M551.0156,304.9688 Q551.1719,304.75 551.3594,304.6406 Q551.5469,304.5313 551.7656,304.5313 Q552.1406,304.5313 552.375,304.7891 Q552.6094,305.0469 552.6094,305.6563 L552.6094,307.1094 Q552.6094,307.7188 552.375,307.9844 Q552.1406,308.25 551.7656,308.25 Q551.4219,308.25 551.2188,308.0469 Q551.0156,307.8594 550.9063,307.3438 Q550.8594,306.9844 550.6719,306.7969 Q550.3438,306.4219 549.7344,306.2031 Q549.125,305.9844 548.5,305.9844 Q547.7344,305.9844 547.1016,306.3125 Q546.4688,306.6406 545.9766,307.3906 Q545.4844,308.1406 545.4844,309.1719 L545.4844,310.2656 Q545.4844,311.5 546.375,312.3203 Q547.2656,313.1406 548.8594,313.1406 Q549.7969,313.1406 550.4531,312.8906 Q550.8438,312.7344 551.2656,312.2969 Q551.5313,312.0313 551.6797,311.9531 Q551.8281,311.875 552.0313,311.875 Q552.3594,311.875 552.6172,312.1328 Q552.875,312.3906 552.875,312.7344 Q552.875,313.0781 552.5313,313.4844 Q552.0313,314.0625 551.2344,314.3906 Q550.1563,314.8438 548.8594,314.8438 Q547.3438,314.8438 546.1406,314.2188 Q545.1563,313.7188 544.4688,312.6484 Q543.7813,311.5781 543.7813,310.2969 L543.7813,309.1406 Q543.7813,307.8125 544.3984,306.6641 Q545.0156,305.5156 546.1094,304.8984 Q547.2031,304.2813 548.4375,304.2813 Q549.1719,304.2813 549.8203,304.4453 Q550.4688,304.6094 551.0156,304.9688 Z "/><text fill="#000000" font-family="sans-serif" font-size="12" font-style="italic" lengthAdjust="spacingAndGlyphs" textLength="81" x="566.75" y="306.457">«value object»</text><text fill="#000000" font-family="sans-serif" font-size="12" lengthAdjust="spacingAndGlyphs" textLength="34" x="590.25" y="321.5508">Room</text><line style="stroke: #A80036; stroke-width: 1.5;" x1="429" x2="753" y1="329.1875" y2="329.1875"/><rect fill="none" height="6" style="stroke: #C82930; stroke-width: 1.0;" width="6" x="436" y="338.6055"/><text fill="#000000" font-family="sans-serif" font-size="11" lengthAdjust="spacingAndGlyphs" textLength="75" x="448" y="344.6064">Int roomNumber</text><rect fill="none" height="6" style="stroke: #C82930; stroke-width: 1.0;" width="6" x="436" y="352.4414"/><text fill="#000000" font-family="sans-serif" font-size="11" lengthAdjust="spacingAndGlyphs" textLength="76" x="448" y="358.4424">Int maxCapacity</text><rect fill="none" height="6" style="stroke: #C82930; stroke-width: 1.0;" width="6" x="436" y="366.2773"/><text fill="#000000" font-family="sans-serif" font-size="11" lengthAdjust="spacingAndGlyphs" textLength="55" x="448" y="372.2783">Int capacity</text><rect fill="none" height="6" style="stroke: #C82930; stroke-width: 1.0;" width="6" x="436" y="380.1133"/><text fill="#000000" font-family="sans-serif" font-size="11" lengthAdjust="spacingAndGlyphs" textLength="44" x="448" y="386.1143">Int chairs</text><line style="stroke: #A80036; stroke-width: 1.5;" x1="429" x2="753" y1="392.5313" y2="392.5313"/><ellipse cx="439" cy="404.9492" fill="#84BE84" rx="3" ry="3" style="stroke: #038048; stroke-width: 1.0;"/><text fill="#000000" font-family="sans-serif" font-size="11" lengthAdjust="spacingAndGlyphs" textLength="161" x="448" y="407.9502">Room(int maxCapacity, int chairs)</text><ellipse cx="439" cy="418.7852" fill="#84BE84" rx="3" ry="3" style="stroke: #038048; stroke-width: 1.0;"/><text fill="#000000" font-family="sans-serif" font-size="11" lengthAdjust="spacingAndGlyphs" textLength="169" x="448" y="421.7861">AddResource(Resource resource)</text><ellipse cx="439" cy="432.6211" fill="#84BE84" rx="3" ry="3" style="stroke: #038048; stroke-width: 1.0;"/><text fill="#000000" font-family="sans-serif" font-size="11" lengthAdjust="spacingAndGlyphs" textLength="188" x="448" y="435.6221">RemoveResource(Resource resource)</text><ellipse cx="439" cy="446.457" fill="#84BE84" rx="3" ry="3" style="stroke: #038048; stroke-width: 1.0;"/><text fill="#000000" font-family="sans-serif" font-size="11" lengthAdjust="spacingAndGlyphs" textLength="202" x="448" y="449.458">AddReservation(Reservation reservation)</text><ellipse cx="439" cy="460.293" fill="#84BE84" rx="3" ry="3" style="stroke: #038048; stroke-width: 1.0;"/><text fill="#000000" font-family="sans-serif" font-size="11" lengthAdjust="spacingAndGlyphs" textLength="267" x="448" y="463.2939">Resource GetResourceByNumber(int resourceNumber)</text><ellipse cx="439" cy="474.1289" fill="#84BE84" rx="3" ry="3" style="stroke: #038048; stroke-width: 1.0;"/><text fill="#000000" font-family="sans-serif" font-size="11" lengthAdjust="spacingAndGlyphs" textLength="300" x="448" y="477.1299">Reservation GetReservationByNumber(int reservationNumber)</text><!--class Resource--><rect fill="#FEFECE" filter="url(#fzhave7j837xp)" height="125.3672" id="Resource" style="stroke: #A80036; stroke-width: 1.5;" width="358" x="179" y="584"/><ellipse cx="315.25" cy="604.0938" fill="#ADD1B2" rx="11" ry="11" style="stroke: #A80036; stroke-width: 1.0;"/><path d="M318.0156,599.9688 Q318.1719,599.75 318.3594,599.6406 Q318.5469,599.5313 318.7656,599.5313 Q319.1406,599.5313 319.375,599.7891 Q319.6094,600.0469 319.6094,600.6563 L319.6094,602.1094 Q319.6094,602.7188 319.375,602.9844 Q319.1406,603.25 318.7656,603.25 Q318.4219,603.25 318.2188,603.0469 Q318.0156,602.8594 317.9063,602.3438 Q317.8594,601.9844 317.6719,601.7969 Q317.3438,601.4219 316.7344,601.2031 Q316.125,600.9844 315.5,600.9844 Q314.7344,600.9844 314.1016,601.3125 Q313.4688,601.6406 312.9766,602.3906 Q312.4844,603.1406 312.4844,604.1719 L312.4844,605.2656 Q312.4844,606.5 313.375,607.3203 Q314.2656,608.1406 315.8594,608.1406 Q316.7969,608.1406 317.4531,607.8906 Q317.8438,607.7344 318.2656,607.2969 Q318.5313,607.0313 318.6797,606.9531 Q318.8281,606.875 319.0313,606.875 Q319.3594,606.875 319.6172,607.1328 Q319.875,607.3906 319.875,607.7344 Q319.875,608.0781 319.5313,608.4844 Q319.0313,609.0625 318.2344,609.3906 Q317.1563,609.8438 315.8594,609.8438 Q314.3438,609.8438 313.1406,609.2188 Q312.1563,608.7188 311.4688,607.6484 Q310.7813,606.5781 310.7813,605.2969 L310.7813,604.1406 Q310.7813,602.8125 311.3984,601.6641 Q312.0156,600.5156 313.1094,599.8984 Q314.2031,599.2813 315.4375,599.2813 Q316.1719,599.2813 316.8203,599.4453 Q317.4688,599.6094 318.0156,599.9688 Z "/><text fill="#000000" font-family="sans-serif" font-size="12" font-style="italic" lengthAdjust="spacingAndGlyphs" textLength="81" x="333.75" y="601.457">«value object»</text><text fill="#000000" font-family="sans-serif" font-size="12" lengthAdjust="spacingAndGlyphs" textLength="54" x="347.25" y="616.5508">Resource</text><line style="stroke: #A80036; stroke-width: 1.5;" x1="180" x2="536" y1="624.1875" y2="624.1875"/><rect fill="none" height="6" style="stroke: #C82930; stroke-width: 1.0;" width="6" x="187" y="633.6055"/><text fill="#000000" font-family="sans-serif" font-size="11" lengthAdjust="spacingAndGlyphs" textLength="95" x="199" y="639.6064">Int resourceNumber</text><rect fill="none" height="6" style="stroke: #C82930; stroke-width: 1.0;" width="6" x="187" y="647.4414"/><text fill="#000000" font-family="sans-serif" font-size="11" lengthAdjust="spacingAndGlyphs" textLength="58" x="199" y="653.4424">String Name</text><rect fill="none" height="6" style="stroke: #C82930; stroke-width: 1.0;" width="6" x="187" y="661.2773"/><text fill="#000000" font-family="sans-serif" font-size="11" lengthAdjust="spacingAndGlyphs" textLength="68" x="199" y="667.2783">Bool canMove</text><rect fill="none" height="6" style="stroke: #C82930; stroke-width: 1.0;" width="6" x="187" y="675.1133"/><text fill="#000000" font-family="sans-serif" font-size="11" lengthAdjust="spacingAndGlyphs" textLength="142" x="199" y="681.1143">ResourceType resourceType</text><line style="stroke: #A80036; stroke-width: 1.5;" x1="180" x2="536" y1="687.5313" y2="687.5313"/><ellipse cx="190" cy="699.9492" fill="#84BE84" rx="3" ry="3" style="stroke: #038048; stroke-width: 1.0;"/><text fill="#000000" font-family="sans-serif" font-size="11" lengthAdjust="spacingAndGlyphs" textLength="332" x="199" y="702.9502">Resource(string name, bool canMove, ResourceType resourceType)</text><!--class Reservation--><rect fill="#FEFECE" filter="url(#fzhave7j837xp)" height="125.3672" id="Reservation" style="stroke: #A80036; stroke-width: 1.5;" width="276" x="687" y="584"/><ellipse cx="782.25" cy="604.0938" fill="#ADD1B2" rx="11" ry="11" style="stroke: #A80036; stroke-width: 1.0;"/><path d="M785.0156,599.9688 Q785.1719,599.75 785.3594,599.6406 Q785.5469,599.5313 785.7656,599.5313 Q786.1406,599.5313 786.375,599.7891 Q786.6094,600.0469 786.6094,600.6563 L786.6094,602.1094 Q786.6094,602.7188 786.375,602.9844 Q786.1406,603.25 785.7656,603.25 Q785.4219,603.25 785.2188,603.0469 Q785.0156,602.8594 784.9063,602.3438 Q784.8594,601.9844 784.6719,601.7969 Q784.3438,601.4219 783.7344,601.2031 Q783.125,600.9844 782.5,600.9844 Q781.7344,600.9844 781.1016,601.3125 Q780.4688,601.6406 779.9766,602.3906 Q779.4844,603.1406 779.4844,604.1719 L779.4844,605.2656 Q779.4844,606.5 780.375,607.3203 Q781.2656,608.1406 782.8594,608.1406 Q783.7969,608.1406 784.4531,607.8906 Q784.8438,607.7344 785.2656,607.2969 Q785.5313,607.0313 785.6797,606.9531 Q785.8281,606.875 786.0313,606.875 Q786.3594,606.875 786.6172,607.1328 Q786.875,607.3906 786.875,607.7344 Q786.875,608.0781 786.5313,608.4844 Q786.0313,609.0625 785.2344,609.3906 Q784.1563,609.8438 782.8594,609.8438 Q781.3438,609.8438 780.1406,609.2188 Q779.1563,608.7188 778.4688,607.6484 Q777.7813,606.5781 777.7813,605.2969 L777.7813,604.1406 Q777.7813,602.8125 778.3984,601.6641 Q779.0156,600.5156 780.1094,599.8984 Q781.2031,599.2813 782.4375,599.2813 Q783.1719,599.2813 783.8203,599.4453 Q784.4688,599.6094 785.0156,599.9688 Z "/><text fill="#000000" font-family="sans-serif" font-size="12" font-style="italic" lengthAdjust="spacingAndGlyphs" textLength="81" x="800.75" y="601.457">«value object»</text><text fill="#000000" font-family="sans-serif" font-size="12" lengthAdjust="spacingAndGlyphs" textLength="66" x="808.25" y="616.5508">Reservation</text><line style="stroke: #A80036; stroke-width: 1.5;" x1="688" x2="962" y1="624.1875" y2="624.1875"/><rect fill="none" height="6" style="stroke: #C82930; stroke-width: 1.0;" width="6" x="695" y="633.6055"/><text fill="#000000" font-family="sans-serif" font-size="11" lengthAdjust="spacingAndGlyphs" textLength="106" x="707" y="639.6064">Int reservationNumber</text><rect fill="none" height="6" style="stroke: #C82930; stroke-width: 1.0;" width="6" x="695" y="647.4414"/><text fill="#000000" font-family="sans-serif" font-size="11" lengthAdjust="spacingAndGlyphs" textLength="91" x="707" y="653.4424">DateTime startTime</text><rect fill="none" height="6" style="stroke: #C82930; stroke-width: 1.0;" width="6" x="695" y="661.2773"/><text fill="#000000" font-family="sans-serif" font-size="11" lengthAdjust="spacingAndGlyphs" textLength="87" x="707" y="667.2783">DateTime endTime</text><line style="stroke: #A80036; stroke-width: 1.5;" x1="688" x2="962" y1="673.6953" y2="673.6953"/><ellipse cx="698" cy="686.1133" fill="#84BE84" rx="3" ry="3" style="stroke: #038048; stroke-width: 1.0;"/><text fill="#000000" font-family="sans-serif" font-size="11" lengthAdjust="spacingAndGlyphs" textLength="250" x="707" y="689.1143">Reservation(DateTime startTime, DateTime endTime)</text><ellipse cx="698" cy="699.9492" fill="#84BE84" rx="3" ry="3" style="stroke: #038048; stroke-width: 1.0;"/><text fill="#000000" font-family="sans-serif" font-size="11" lengthAdjust="spacingAndGlyphs" textLength="169" x="707" y="702.9502">AddResource(Resource resource)</text><!--class ResourceType--><rect fill="#FEFECE" filter="url(#fzhave7j837xp)" height="75.6719" id="ResourceType" style="stroke: #A80036; stroke-width: 1.5;" width="112" x="714" y="60.5"/><ellipse cx="729" cy="76.5" fill="#EB937F" rx="11" ry="11" style="stroke: #A80036; stroke-width: 1.0;"/><path d="M727.8594,77.2969 L727.8594,79.7969 L732.1875,79.7969 L732.1875,78.875 Q732.1875,78.2656 732.4297,78 Q732.6719,77.7344 733.0469,77.7344 Q733.4219,77.7344 733.6563,78 Q733.8906,78.2656 733.8906,78.875 L733.8906,81.5 L725.8906,81.5 Q725.2656,81.5 725.0078,81.2656 Q724.75,81.0313 724.75,80.6406 Q724.75,80.2656 725.0156,80.0313 Q725.2813,79.7969 725.8906,79.7969 L726.1563,79.7969 L726.1563,73.1406 L725.8906,73.1406 Q725.2656,73.1406 725.0078,72.9063 Q724.75,72.6719 724.75,72.2813 Q724.75,71.9063 725.0078,71.6719 Q725.2656,71.4375 725.8906,71.4375 L733.5156,71.4375 L733.5156,74.0313 Q733.5156,74.6406 733.2891,74.8984 Q733.0625,75.1563 732.6719,75.1563 Q732.2969,75.1563 732.0625,74.8984 Q731.8281,74.6406 731.8281,74.0313 L731.8281,73.1406 L727.8594,73.1406 L727.8594,75.5938 L729.3438,75.5938 Q729.3438,74.9375 729.4688,74.75 Q729.7344,74.3438 730.2031,74.3438 Q730.5781,74.3438 730.8125,74.6016 Q731.0469,74.8594 731.0469,75.4688 L731.0469,77.4375 Q731.0469,77.9844 730.9219,78.1719 Q730.6563,78.5625 730.2031,78.5625 Q729.7344,78.5625 729.4688,78.1563 Q729.3438,77.9688 729.3438,77.2969 L727.8594,77.2969 Z "/><text fill="#000000" font-family="sans-serif" font-size="12" lengthAdjust="spacingAndGlyphs" textLength="80" x="743" y="81.4102">ResourceType</text><line style="stroke: #A80036; stroke-width: 1.5;" x1="715" x2="825" y1="92.5" y2="92.5"/><text fill="#000000" font-family="sans-serif" font-size="11" lengthAdjust="spacingAndGlyphs" textLength="43" x="720" y="107.9189">SCREEN,</text><text fill="#000000" font-family="sans-serif" font-size="11" lengthAdjust="spacingAndGlyphs" textLength="37" x="720" y="121.7549">BOARD</text><line style="stroke: #A80036; stroke-width: 1.5;" x1="715" x2="825" y1="128.1719" y2="128.1719"/><!--class IOfficeRepository--><rect fill="#FEFECE" filter="url(#fzhave7j837xp)" height="172.5234" id="IOfficeRepository" style="stroke: #A80036; stroke-width: 1.5;" width="339" x="976.5" y="12"/><ellipse cx="1094.75" cy="28" fill="#B4A7E5" rx="11" ry="11" style="stroke: #A80036; stroke-width: 1.0;"/><path d="M1095.7031,24.6406 L1095.7031,31.2969 L1097.4219,31.2969 Q1098.0313,31.2969 1098.2969,31.5313 Q1098.5625,31.7656 1098.5625,32.1563 Q1098.5625,32.5313 1098.2969,32.7656 Q1098.0313,33 1097.4219,33 L1092.2813,33 Q1091.6719,33 1091.4063,32.7656 Q1091.1406,32.5313 1091.1406,32.1406 Q1091.1406,31.7656 1091.4063,31.5313 Q1091.6719,31.2969 1092.2813,31.2969 L1094,31.2969 L1094,24.6406 L1092.2813,24.6406 Q1091.6719,24.6406 1091.4063,24.4063 Q1091.1406,24.1719 1091.1406,23.7813 Q1091.1406,23.4063 1091.4063,23.1719 Q1091.6719,22.9375 1092.2813,22.9375 L1097.4219,22.9375 Q1098.0313,22.9375 1098.2969,23.1719 Q1098.5625,23.4063 1098.5625,23.7813 Q1098.5625,24.1719 1098.2969,24.4063 Q1098.0313,24.6406 1097.4219,24.6406 L1095.7031,24.6406 Z "/><text fill="#000000" font-family="sans-serif" font-size="12" font-style="italic" lengthAdjust="spacingAndGlyphs" textLength="94" x="1115.25" y="32.9102">IOfficeRepository</text><line style="stroke: #A80036; stroke-width: 1.5;" x1="977.5" x2="1314.5" y1="44" y2="44"/><line style="stroke: #A80036; stroke-width: 1.5;" x1="977.5" x2="1314.5" y1="52" y2="52"/><text fill="#000000" font-family="sans-serif" font-size="11" lengthAdjust="spacingAndGlyphs" textLength="167" x="982.5" y="67.4189">Office CreateOffice(Office office);</text><text fill="#000000" font-family="sans-serif" font-size="11" lengthAdjust="spacingAndGlyphs" textLength="145" x="982.5" y="81.2549">Office GetOfficeById(Guid id);</text><text fill="#000000" font-family="sans-serif" font-size="11" lengthAdjust="spacingAndGlyphs" textLength="138" x="982.5" y="95.0908">List&lt;Office&gt; GetAllOffices();</text><text fill="#000000" font-family="sans-serif" font-size="11" lengthAdjust="spacingAndGlyphs" textLength="262" x="982.5" y="108.9268">void AddEmployee(Guid officeId, Employee employee);</text><text fill="#000000" font-family="sans-serif" font-size="11" lengthAdjust="spacingAndGlyphs" textLength="202" x="982.5" y="122.7627">void AddRoom(Guid officeId, Room room);</text><text fill="#000000" font-family="sans-serif" font-size="11" lengthAdjust="spacingAndGlyphs" textLength="307" x="982.5" y="136.5986">void AddReservationToRoom(Guid officeId, List&lt;Room&gt; rooms);</text><text fill="#000000" font-family="sans-serif" font-size="11" lengthAdjust="spacingAndGlyphs" textLength="296" x="982.5" y="150.4346">void AddResourceToRoom(Guid officeId, List&lt;Room&gt; rooms);</text><text fill="#000000" font-family="sans-serif" font-size="11" lengthAdjust="spacingAndGlyphs" textLength="327" x="982.5" y="164.2705">void RemoveResourceFromRoom(Guid officeId, List&lt;Room&gt; rooms);</text><text fill="#000000" font-family="sans-serif" font-size="11" lengthAdjust="spacingAndGlyphs" textLength="327" x="982.5" y="178.1064">void AddResourceToReservation(Guid officeId, List&lt;Room&gt; rooms);</text><!--link Office to Room--><path d="M436.574,189.207 C460.379,219.466 487.106,253.439 511.548,284.508 " fill="none" id="Office-Room" style="stroke: #A80036; stroke-width: 1.0;"/><polygon fill="#A80036" points="514.826,288.675,512.4038,279.1286,511.734,284.7457,506.1169,284.0758,514.826,288.675" style="stroke: #A80036; stroke-width: 1.0;"/><text fill="#000000" font-family="sans-serif" font-size="13" lengthAdjust="spacingAndGlyphs" textLength="20" x="429.0463" y="278.0987">0..*</text><text fill="#000000" font-family="sans-serif" font-size="13" lengthAdjust="spacingAndGlyphs" textLength="41" x="465.0463" y="278.0987">Rooms</text><!--link Office to Employee--><path d="M295.74,189.207 C262.687,231.409 223.974,280.837 193.665,319.535 " fill="none" id="Office-Employee" style="stroke: #A80036; stroke-width: 1.0;"/><polygon fill="#A80036" points="190.386,323.722,199.084,319.1019,193.4685,319.7853,192.7852,314.1698,190.386,323.722" style="stroke: #A80036; stroke-width: 1.0;"/><text fill="#000000" font-family="sans-serif" font-size="13" lengthAdjust="spacingAndGlyphs" textLength="20" x="89.1415" y="313.0325">0..*</text><text fill="#000000" font-family="sans-serif" font-size="13" lengthAdjust="spacingAndGlyphs" textLength="65" x="125.1415" y="313.0325">Employees</text><!--link Room to Resource--><path d="M503.576,484.304 C474.782,516.188 443.456,550.875 417.265,579.876 " fill="none" id="Room-Resource" style="stroke: #A80036; stroke-width: 1.0;"/><polygon fill="#A80036" points="413.769,583.747,422.7695,579.7481,417.12,580.0361,416.832,574.3866,413.769,583.747" style="stroke: #A80036; stroke-width: 1.0;"/><text fill="#000000" font-family="sans-serif" font-size="13" lengthAdjust="spacingAndGlyphs" textLength="20" x="316.5517" y="573.0604">0..*</text><text fill="#000000" font-family="sans-serif" font-size="13" lengthAdjust="spacingAndGlyphs" textLength="62" x="352.5517" y="573.0604">Resources</text><!--link Room to Reservation--><path d="M678.799,484.304 C707.717,516.188 739.178,550.875 765.481,579.876 " fill="none" id="Room-Reservation" style="stroke: #A80036; stroke-width: 1.0;"/><polygon fill="#A80036" points="768.992,583.747,765.9101,574.3928,765.6335,580.0428,759.9835,579.7663,768.992,583.747" style="stroke: #A80036; stroke-width: 1.0;"/><text fill="#000000" font-family="sans-serif" font-size="13" lengthAdjust="spacingAndGlyphs" textLength="20" x="646.1567" y="573.0604">0..*</text><text fill="#000000" font-family="sans-serif" font-size="13" lengthAdjust="spacingAndGlyphs" textLength="74" x="682.1567" y="573.0604">Reservations</text><!--link Resource to Reservation--><path d="M542.486,646.5 C590.569,646.5 638.652,646.5 686.735,646.5 " fill="none" id="Resource-Reservation" style="stroke: #A80036; stroke-width: 1.0;"/><polygon fill="#A80036" points="537.229,646.5,546.229,650.5,542.229,646.5,546.229,642.5,537.229,646.5" style="stroke: #A80036; stroke-width: 1.0;"/><text fill="#000000" font-family="sans-serif" font-size="13" lengthAdjust="spacingAndGlyphs" textLength="20" x="544.7178" y="643.7324">0..*</text><text fill="#000000" font-family="sans-serif" font-size="13" lengthAdjust="spacingAndGlyphs" textLength="62" x="580.7178" y="643.7324">Resources</text><!--
@startuml "Casus"

skinparam nodesep 150
skinparam ranksep 100

Class "Office" as Office
Class "Employee" as Employee
Class "Room" as Room
Class "Resource" as Resource
Class "Reservation" as Reservation


Enum "ResourceType" as ResourceType

Interface "IOfficeRepository" as IOfficeRepository


Office - -> "0..*\t Rooms" Room 
Office  - -> "0..*\t Employees" Employee
Room  - -> "0..*\t Resources" Resource
Room  - -> "0..*\t Reservations" Reservation
Reservation  -left-> "0..*\t Resources" Resource

Class Office <<entity>>{
    -Guid id
    -String name
    -String location
    -DateTime openHour
    -DateTime closeHour
    +Office(string name, string location, DateTime openHour, DateTime closeHour)
    +AddRoom(Room room)
    +AddEmployee(Employee employee)
    +Room GetRoomByNumber(int roomNumber)
}

Class Employee <<value object>>{
    -Guid id
    -String name
    -String lastName
    -String email
    +Employee(sring name, string lastname, string email)
}

Class Reservation <<value object>>{
    -Int reservationNumber
    -DateTime startTime
    -DateTime endTime
    +Reservation(DateTime startTime, DateTime endTime)
    +AddResource(Resource resource)
}

Class Room <<value object>>{
    -Int roomNumber
    -Int maxCapacity
    -Int capacity
    -Int chairs
    +Room(int maxCapacity, int chairs)
    +AddResource(Resource resource)
    +RemoveResource(Resource resource)
    +AddReservation(Reservation reservation)
    +Resource GetResourceByNumber(int resourceNumber)
    +Reservation GetReservationByNumber(int reservationNumber)
}

Class Resource <<value object>>{
    -Int resourceNumber
    -String Name
    -Bool canMove
    -ResourceType resourceType
    +Resource(string name, bool canMove, ResourceType resourceType)
}

Enum ResourceType {
    SCREEN,
    BOARD
}

Interface IOfficeRepository {
    Office CreateOffice(Office office);
    Office GetOfficeById(Guid id);
    List<Office> GetAllOffices();
    void AddEmployee(Guid officeId, Employee employee);
    void AddRoom(Guid officeId, Room room);
    void AddReservationToRoom(Guid officeId, List<Room> rooms);
    void AddResourceToRoom(Guid officeId, List<Room> rooms);
    void RemoveResourceFromRoom(Guid officeId, List<Room> rooms);
    void AddResourceToReservation(Guid officeId, List<Room> rooms);
}

@enduml

PlantUML version 1.2018.03(Thu Apr 05 18:59:15 CEST 2018)
(GPL source distribution)
Java Runtime: Java(TM) SE Runtime Environment
JVM: Java HotSpot(TM) 64-Bit Server VM
Java Version: 1.8.0_181-b13
Operating System: Windows 10
OS Version: 10.0
Default Encoding: Cp1252
Language: en
Country: US
--></g></svg>